<mxfile host="app.diagrams.net" modified="2024-05-29T08:13:27.661Z" agent="Mozilla/5.0 (Windows NT 10.0; Win64; x64) AppleWebKit/537.36 (KHTML, like Gecko) Chrome/124.0.0.0 Whale/3.26.244.21 Safari/537.36" etag="jAm7dIjUFlNwT_WalmM9" version="24.4.4" type="github">
  <diagram name="페이지-1" id="jGxehZVcga5X0GvEAoeb">
    <mxGraphModel dx="1004" dy="541" grid="1" gridSize="10" guides="1" tooltips="1" connect="1" arrows="1" fold="1" page="1" pageScale="1" pageWidth="827" pageHeight="1169" math="0" shadow="0">
      <root>
        <mxCell id="0" />
        <mxCell id="1" parent="0" />
        <mxCell id="RhztrB8scdoEdB02NCuM-1" value="Exception" style="rounded=0;whiteSpace=wrap;html=1;" vertex="1" parent="1">
          <mxGeometry x="330" y="30" width="120" height="60" as="geometry" />
        </mxCell>
        <mxCell id="RhztrB8scdoEdB02NCuM-5" value="" style="edgeStyle=orthogonalEdgeStyle;rounded=0;orthogonalLoop=1;jettySize=auto;html=1;" edge="1" parent="1" source="RhztrB8scdoEdB02NCuM-2" target="RhztrB8scdoEdB02NCuM-1">
          <mxGeometry relative="1" as="geometry" />
        </mxCell>
        <mxCell id="RhztrB8scdoEdB02NCuM-2" value="RuntimeException" style="rounded=0;whiteSpace=wrap;html=1;" vertex="1" parent="1">
          <mxGeometry x="330" y="150" width="120" height="60" as="geometry" />
        </mxCell>
        <mxCell id="RhztrB8scdoEdB02NCuM-3" value="" style="endArrow=openThin;html=1;rounded=0;entryX=0.5;entryY=1;entryDx=0;entryDy=0;startArrow=none;startFill=0;endFill=0;" edge="1" parent="1" target="RhztrB8scdoEdB02NCuM-1">
          <mxGeometry width="50" height="50" relative="1" as="geometry">
            <mxPoint x="390" y="150" as="sourcePoint" />
            <mxPoint x="440" y="260" as="targetPoint" />
          </mxGeometry>
        </mxCell>
        <mxCell id="RhztrB8scdoEdB02NCuM-4" value="ApiException" style="rounded=0;whiteSpace=wrap;html=1;" vertex="1" parent="1">
          <mxGeometry x="330" y="270" width="120" height="60" as="geometry" />
        </mxCell>
        <mxCell id="RhztrB8scdoEdB02NCuM-7" value="" style="endArrow=classic;html=1;rounded=0;exitX=0.5;exitY=0;exitDx=0;exitDy=0;entryX=0.5;entryY=1;entryDx=0;entryDy=0;" edge="1" parent="1" source="RhztrB8scdoEdB02NCuM-4" target="RhztrB8scdoEdB02NCuM-2">
          <mxGeometry width="50" height="50" relative="1" as="geometry">
            <mxPoint x="390" y="310" as="sourcePoint" />
            <mxPoint x="440" y="260" as="targetPoint" />
          </mxGeometry>
        </mxCell>
        <mxCell id="RhztrB8scdoEdB02NCuM-8" value="EntityNotFoundException" style="rounded=0;whiteSpace=wrap;html=1;" vertex="1" parent="1">
          <mxGeometry x="140" y="400" width="160" height="60" as="geometry" />
        </mxCell>
        <mxCell id="RhztrB8scdoEdB02NCuM-9" value="" style="endArrow=none;html=1;rounded=0;exitX=0.5;exitY=1;exitDx=0;exitDy=0;entryX=0.5;entryY=0;entryDx=0;entryDy=0;" edge="1" parent="1" source="RhztrB8scdoEdB02NCuM-4" target="RhztrB8scdoEdB02NCuM-8">
          <mxGeometry width="50" height="50" relative="1" as="geometry">
            <mxPoint x="390" y="480" as="sourcePoint" />
            <mxPoint x="440" y="430" as="targetPoint" />
            <Array as="points">
              <mxPoint x="390" y="360" />
              <mxPoint x="220" y="360" />
            </Array>
          </mxGeometry>
        </mxCell>
        <mxCell id="RhztrB8scdoEdB02NCuM-10" value="InvalidValueException" style="rounded=0;whiteSpace=wrap;html=1;" vertex="1" parent="1">
          <mxGeometry x="490" y="400" width="150" height="60" as="geometry" />
        </mxCell>
        <mxCell id="RhztrB8scdoEdB02NCuM-11" value="" style="endArrow=classic;html=1;rounded=0;entryX=0.5;entryY=1;entryDx=0;entryDy=0;exitX=0.5;exitY=0;exitDx=0;exitDy=0;startArrow=none;startFill=0;endFill=1;" edge="1" parent="1" source="RhztrB8scdoEdB02NCuM-10" target="RhztrB8scdoEdB02NCuM-4">
          <mxGeometry width="50" height="50" relative="1" as="geometry">
            <mxPoint x="570" y="390" as="sourcePoint" />
            <mxPoint x="440" y="430" as="targetPoint" />
            <Array as="points">
              <mxPoint x="565" y="360" />
              <mxPoint x="390" y="360" />
            </Array>
          </mxGeometry>
        </mxCell>
      </root>
    </mxGraphModel>
  </diagram>
</mxfile>
